<svg width="289" height="180" viewBox="0 0 289 180" fill="none" xmlns="http://www.w3.org/2000/svg">
<path d="M103.874 28.9631C49.9235 14.4844 14.8093 56.0522 7.833 88.9795C0.856658 121.907 22.0311 151.605 53.4117 163.708C85.5027 176.085 115.501 159.505 147.127 141.757C178.753 124.008 208.737 168.704 244.098 157.169C307.815 136.385 272.236 62.8245 224.332 62.8245C197.936 62.8245 189.683 88.5124 170.381 83.6083C139.718 75.8174 149.515 41.2119 103.874 28.9631Z" fill="#F2FBFF"/>
<rect x="62.237" y="130.304" width="2.79042" height="7.90618" rx="1.39521" transform="rotate(-7.45687 62.237 130.304)" fill="#E2E2E2" stroke="#808080"/>
<rect width="2.79042" height="7.90618" rx="1.39521" transform="matrix(-0.759917 0.65002 0.65002 0.759917 76.8164 124.048)" fill="#E2E2E2" stroke="#808080"/>
<path d="M39.3677 110.772C45.7523 111.391 50.6573 116.691 52.3117 119.264C53.0931 122.734 54.2547 129.802 52.6495 130.313C51.0443 130.824 50.7516 128.528 50.8059 127.316C50.6493 128.488 49.9394 130.858 48.3528 130.953C46.8851 131.042 47.7265 127.444 48.4579 125.228C47.7131 127.301 46.1268 130.59 44.5276 130.365C42.7897 130.121 44.462 126.407 45.5154 124.58C44.4383 126.163 41.7691 129.201 39.71 128.692C37.6508 128.184 40.4864 124.529 42.1616 122.765C40.014 124.23 35.459 126.92 34.4195 125.957C33.38 124.994 37.8246 121.98 40.1769 120.594C37.0767 121.635 30.5834 123.287 29.4112 121.569C28.239 119.851 34.8709 118.205 38.3333 117.596C34.5871 117.567 26.9434 117.169 26.3381 115.81C25.7328 114.45 33.0108 114.027 36.7254 113.985C32.6878 113.492 24.6074 112.151 24.5876 110.735C24.5628 108.964 31.3869 109.998 39.3677 110.772Z" fill="#D9F4FF" stroke="#9ADAF3" stroke-linejoin="round"/>
<path d="M77.6052 93.7477C73.7932 98.9067 74.4495 106.098 75.2542 109.049C77.3102 111.951 81.7857 117.544 83.2395 116.693C84.6934 115.842 83.1827 114.088 82.2457 113.318C83.222 113.986 85.4578 115.044 86.5904 113.929C87.6381 112.897 84.4017 111.115 82.2657 110.176C84.3039 111.009 87.8102 112.032 88.7132 110.693C89.6944 109.238 85.8152 107.995 83.753 107.556C85.6498 107.814 89.6935 107.863 90.6934 105.993C91.6932 104.122 87.0795 103.784 84.6477 103.848C87.1736 103.233 92.2205 101.648 92.2007 100.231C92.1808 98.8144 86.9669 100.101 84.3625 100.921C87.2104 99.3134 92.7832 95.5935 92.2907 93.5728C91.7983 91.5521 86.1375 95.3791 83.3686 97.5452C85.8538 94.7418 90.6727 88.7951 90.0673 87.4356C89.462 86.076 84.2774 91.2013 81.7608 93.9338C84.096 90.6033 88.5066 83.7014 87.4671 82.7388C86.1678 81.5355 82.3703 87.299 77.6052 93.7477Z" fill="#D9F4FF" stroke="#9ADAF3" stroke-linejoin="round"/>
<path d="M49.8741 99.9771L48.5153 101.303L53.2364 106.141L54.5953 104.815L49.8741 99.9771Z" fill="#808080"/>
<path d="M62.0625 94.5377L63.9546 94.3796L64.5172 101.116L62.6251 101.274L62.0625 94.5377Z" fill="#808080"/>
<path d="M56.364 100.84L49.3726 107.408L47.9584 106.059C47.4209 105.527 47.4457 104.665 48.0153 104.131L52.9515 99.4962C53.5211 98.9622 54.4205 98.9592 54.9594 99.4909L56.364 100.84Z" fill="white" stroke="#808080" stroke-miterlimit="10"/>
<path d="M58.4631 100.007L68.0058 99.027L67.9129 97.0748C67.8629 96.3201 67.1956 95.7743 66.419 95.8549L59.6832 96.5479C58.9066 96.6284 58.3152 97.306 58.3639 98.0615L58.4631 100.007Z" fill="white" stroke="#808080" stroke-miterlimit="10"/>
<path d="M70.8168 130.526C78.2434 127.22 81.5833 118.519 78.2768 111.092C74.9703 103.666 66.2694 100.326 58.8429 103.632C51.4163 106.939 48.0764 115.64 51.3829 123.066C54.6894 130.493 63.3903 133.833 70.8168 130.526Z" fill="white" stroke="#808080" stroke-width="2" stroke-miterlimit="10"/>
<path d="M60.4537 115.826C60.7671 116.53 60.3554 117.397 59.5342 117.762C58.7129 118.128 57.7931 117.854 57.4797 117.15" stroke="#808080" stroke-linecap="round"/>
<path d="M69.3758 111.853C69.6892 112.557 69.2775 113.424 68.4562 113.79C67.635 114.156 66.7151 113.881 66.4017 113.177" stroke="#808080" stroke-linecap="round"/>
<circle cx="67.4218" cy="120.614" r="1.16267" transform="rotate(-24 67.4218 120.614)" fill="white" stroke="#808080"/>
<rect x="235.686" y="82.4213" width="2.79041" height="7.90618" rx="1.39521" transform="rotate(40.5431 235.686 82.4213)" fill="#E2E2E2" stroke="#808080"/>
<rect width="2.79042" height="7.90618" rx="1.39521" transform="matrix(-0.991543 -0.12978 -0.12978 0.991543 250.099 89.0648)" fill="#E2E2E2" stroke="#808080"/>
<path d="M234.898 52.3566C238.71 57.5156 238.054 64.7068 237.249 67.6576C235.193 70.5603 230.718 76.153 229.264 75.3021C227.81 74.4512 229.321 72.6971 230.258 71.9265C229.281 72.5948 227.046 73.6527 225.913 72.5375C224.865 71.5059 228.102 69.7241 230.238 68.7849C228.199 69.6179 224.693 70.6405 223.79 69.3015C222.809 67.8465 226.688 66.604 228.75 66.1646C226.854 66.4231 222.81 66.4723 221.81 64.6018C220.81 62.7312 225.424 62.3926 227.856 62.4572C225.33 61.8417 220.283 60.2565 220.303 58.8399C220.323 57.4232 225.536 58.7095 228.141 59.5297C225.293 57.9223 219.72 54.2024 220.213 52.1817C220.705 50.161 226.366 53.988 229.135 56.1541C226.65 53.3507 221.831 47.404 222.436 46.0445C223.041 44.6849 228.226 49.8102 230.743 52.5427C228.407 49.2122 223.997 42.3103 225.036 41.3477C226.336 40.1444 230.133 45.9078 234.898 52.3566Z" fill="#D9F4FF" stroke="#9ADAF3" stroke-linejoin="round"/>
<path d="M273.136 69.3811C266.751 70.0002 261.846 75.2999 260.192 77.8723C259.41 81.3425 258.249 88.4107 259.854 88.9217C261.459 89.4328 261.752 87.1364 261.697 85.9244C261.854 87.0972 262.564 89.4665 264.151 89.562C265.618 89.6503 264.777 86.053 264.045 83.8371C264.79 85.9093 266.377 89.1992 267.976 88.9743C269.714 88.7299 268.041 85.0156 266.988 83.1891C268.065 84.7717 270.734 87.8097 272.793 87.3011C274.853 86.7924 272.017 83.1373 270.342 81.3733C272.489 82.8385 277.044 85.5284 278.084 84.5657C279.123 83.6031 274.679 80.5891 272.326 79.2024C275.427 80.2433 281.92 81.8956 283.092 80.1775C284.264 78.4594 277.632 76.8134 274.17 76.2051C277.916 76.1761 285.56 75.7782 286.165 74.4186C286.771 73.059 279.493 72.6356 275.778 72.5938C279.816 72.1006 287.896 70.7601 287.916 69.3435C287.941 67.5728 281.116 68.6072 273.136 69.3811Z" fill="#D9F4FF" stroke="#9ADAF3" stroke-linejoin="round"/>
<path d="M249.951 52.941L248.056 52.8185L247.62 59.5642L249.514 59.6868L249.951 52.941Z" fill="#808080"/>
<path d="M262.149 58.3591L263.532 59.6594L258.902 64.585L257.519 63.2847L262.149 58.3591Z" fill="#808080"/>
<path d="M253.652 58.3415L244.093 57.5409L244.149 55.5873C244.185 54.8318 244.842 54.2736 245.62 54.3396L252.367 54.9062C253.145 54.9723 253.749 55.6386 253.715 56.3949L253.652 58.3415Z" fill="white" stroke="#808080" stroke-miterlimit="10"/>
<path d="M255.676 59.3436L262.789 65.7798L264.178 64.4045C264.705 63.8624 264.664 63.0012 264.085 62.478L259.063 57.936C258.483 57.4128 257.584 57.4267 257.055 57.9684L255.676 59.3436Z" fill="white" stroke="#808080" stroke-miterlimit="10"/>
<path d="M241.262 88.9458C248.688 92.2523 257.389 88.9123 260.696 81.4858C264.002 74.0592 260.662 65.3583 253.236 62.0518C245.809 58.7453 237.108 62.0853 233.802 69.5118C230.495 76.9384 233.835 85.6393 241.262 88.9458Z" fill="white" stroke="#808080" stroke-width="2" stroke-miterlimit="10"/>
<path d="M251.043 74.8818C251.356 74.1779 252.276 73.9036 253.097 74.2693C253.919 74.6349 254.33 75.502 254.017 76.2059" stroke="#808080" stroke-linecap="round"/>
<path d="M242.121 70.9094C242.434 70.2055 243.354 69.9312 244.175 70.2969C244.997 70.6625 245.408 71.5296 245.095 72.2335" stroke="#808080" stroke-linecap="round"/>
<path d="M247.033 79.1688C246.648 79.8361 245.704 80.0127 244.926 79.5632C244.147 79.1137 243.828 78.2083 244.214 77.541" stroke="#808080" stroke-linecap="round"/>
<path d="M101.243 139.456C100.828 138.739 101.074 137.821 101.792 137.407L105.369 135.341L107.675 135.959L110.929 141.595C111.343 142.313 111.097 143.23 110.38 143.644L106.64 145.804C105.922 146.218 105.005 145.972 104.59 145.255L101.243 139.456Z" fill="white" stroke="#9ADAF3"/>
<path d="M104.956 135.003L108.203 135.873L106.144 137.061L104.956 135.003Z" fill="#9ADAF3"/>
<path d="M248.409 131.988C248.059 132.739 248.384 133.631 249.134 133.982L253.172 135.864L255.549 134.999L258.488 128.697C258.838 127.947 258.513 127.054 257.762 126.704L253.463 124.699C252.712 124.349 251.82 124.674 251.469 125.425L248.409 131.988Z" fill="white" stroke="#9ADAF3"/>
<path d="M252.771 136.229L256.091 135.021L253.827 133.965L252.771 136.229Z" fill="#9ADAF3"/>
<g filter="url(#filter0_d_296_1448)">
<path d="M126.784 46.9861C126.784 45.8815 127.679 44.9861 128.784 44.9861H153.913L159.338 50.5669V87.6327C159.338 88.7373 158.443 89.6327 157.338 89.6327H128.784C127.679 89.6327 126.784 88.7373 126.784 87.6327V46.9861Z" fill="white"/>
<path d="M127.284 46.9861C127.284 46.1577 127.955 45.4861 128.784 45.4861H153.701L158.838 50.7699V87.6327C158.838 88.4612 158.167 89.1327 157.338 89.1327H128.784C127.955 89.1327 127.284 88.4612 127.284 87.6327V46.9861Z" stroke="#808080"/>
</g>
<rect x="143.991" y="73.3555" width="11.1617" height="0.930138" rx="0.465069" fill="#CCCCCC"/>
<rect x="130.969" y="70.0999" width="11.1617" height="0.930138" rx="0.465069" fill="#FF6F3D"/>
<rect x="143.991" y="76.1458" width="11.1617" height="0.930138" rx="0.465069" fill="#CCCCCC"/>
<rect x="143.991" y="78.9363" width="11.1617" height="0.930138" rx="0.465069" fill="#CCCCCC"/>
<rect x="130.969" y="81.7267" width="24.1836" height="0.930138" rx="0.465069" fill="#CCCCCC"/>
<rect x="130.969" y="84.517" width="24.1836" height="0.930138" rx="0.465069" fill="#FF6F3D"/>
<path d="M134.643 76.7659L131.434 79.8664H142.131L138.387 75.2157L136.248 77.7994L134.643 76.7659Z" fill="#FF6F3D"/>
<circle cx="133.76" cy="74.2856" r="0.930138" fill="#FF6F3D"/>
<path d="M140.27 56.6127C140.27 55.8422 139.542 55.2175 138.643 55.2175C137.744 55.2175 137.015 55.8422 137.015 56.6127" stroke="#808080" stroke-linecap="round"/>
<path d="M149.107 56.6127C149.107 55.8422 148.378 55.2175 147.479 55.2175C146.58 55.2175 145.851 55.8422 145.851 56.6127" stroke="#808080" stroke-linecap="round"/>
<path d="M139.805 60.9137C140.67 61.7126 141.784 62.1937 143.001 62.1937C144.274 62.1937 145.437 61.6661 146.316 60.7985" stroke="#808080" stroke-linecap="round"/>
<path d="M153.293 44.9861L158.873 50.5669H154.293C153.74 50.5669 153.293 50.1192 153.293 49.5669V44.9861Z" fill="#808080"/>
<path d="M127.016 63.8214C126.551 65.9143 125.471 68.4093 123.881 69.9294C122.881 70.8853 118.038 67.5587 117.555 67.5677" stroke="#808080" stroke-linecap="round"/>
<path d="M115.539 68.269C115.764 68.4523 116.228 68.6483 116.665 68.5545C117.25 68.429 117.399 67.9738 117.529 67.5945" stroke="#808080" stroke-linecap="round"/>
<path d="M159.106 64.0538C159.571 66.1467 160.581 68.6417 162.171 70.1618C163.171 71.1177 168.015 67.7911 168.497 67.8001" stroke="#808080" stroke-linecap="round"/>
<path d="M170.513 68.5014C170.288 68.6847 169.824 68.8807 169.387 68.7869C168.802 68.6614 168.653 68.2062 168.523 67.8269" stroke="#808080" stroke-linecap="round"/>
<mask id="path-48-inside-1_296_1448" fill="white">
<path fill-rule="evenodd" clip-rule="evenodd" d="M195.259 26.4813C195.248 26.4814 195.237 26.4814 195.225 26.4814C195.214 26.4814 195.202 26.4814 195.191 26.4813H185.853C185.838 26.4814 185.824 26.4814 185.81 26.4814C185.795 26.4814 185.781 26.4814 185.767 26.4813H178.198C178.189 26.4814 178.18 26.4814 178.171 26.4814C178.162 26.4814 178.153 26.4814 178.144 26.4813H177.638V26.4346C176.224 26.1829 175.151 24.9475 175.151 23.4614C175.151 21.7935 176.503 20.4414 178.171 20.4414C179.045 20.4414 179.832 20.8124 180.383 21.4055C181.105 19.8174 183.262 18.6649 185.81 18.6649C187.197 18.6649 188.469 19.0066 189.456 19.5744C189.948 16.835 192.344 14.7566 195.225 14.7566C198.405 14.7566 200.994 17.2886 201.085 20.4467C201.145 20.4432 201.205 20.4414 201.265 20.4414C202.933 20.4414 204.285 21.7935 204.285 23.4614C204.285 25.1293 202.933 26.4814 201.265 26.4814C201.206 26.4814 201.146 26.4797 201.088 26.4763V26.4813H195.259Z"/>
</mask>
<path fill-rule="evenodd" clip-rule="evenodd" d="M195.259 26.4813C195.248 26.4814 195.237 26.4814 195.225 26.4814C195.214 26.4814 195.202 26.4814 195.191 26.4813H185.853C185.838 26.4814 185.824 26.4814 185.81 26.4814C185.795 26.4814 185.781 26.4814 185.767 26.4813H178.198C178.189 26.4814 178.18 26.4814 178.171 26.4814C178.162 26.4814 178.153 26.4814 178.144 26.4813H177.638V26.4346C176.224 26.1829 175.151 24.9475 175.151 23.4614C175.151 21.7935 176.503 20.4414 178.171 20.4414C179.045 20.4414 179.832 20.8124 180.383 21.4055C181.105 19.8174 183.262 18.6649 185.81 18.6649C187.197 18.6649 188.469 19.0066 189.456 19.5744C189.948 16.835 192.344 14.7566 195.225 14.7566C198.405 14.7566 200.994 17.2886 201.085 20.4467C201.145 20.4432 201.205 20.4414 201.265 20.4414C202.933 20.4414 204.285 21.7935 204.285 23.4614C204.285 25.1293 202.933 26.4814 201.265 26.4814C201.206 26.4814 201.146 26.4797 201.088 26.4763V26.4813H195.259Z" fill="white"/>
<path d="M195.259 26.4813V25.4813L195.254 25.4813L195.259 26.4813ZM195.191 26.4813L195.197 25.4813H195.191V26.4813ZM185.853 26.4813V25.4813L185.848 25.4813L185.853 26.4813ZM185.767 26.4813L185.772 25.4813H185.767V26.4813ZM178.198 26.4813V25.4813L178.189 25.4814L178.198 26.4813ZM178.144 26.4813L178.153 25.4813H178.144V26.4813ZM177.638 26.4813H176.638V27.4813H177.638V26.4813ZM177.638 26.4346H178.638V25.5969L177.813 25.4501L177.638 26.4346ZM180.383 21.4055L179.651 22.0864L180.672 23.1851L181.293 21.8195L180.383 21.4055ZM189.456 19.5744L188.957 20.4412L190.188 21.1495L190.44 19.7514L189.456 19.5744ZM201.085 20.4467L200.086 20.4755L200.115 21.5054L201.144 21.4449L201.085 20.4467ZM201.088 26.4763L201.146 25.478L200.088 25.4167V26.4763H201.088ZM201.088 26.4813V27.4813H202.088V26.4813H201.088ZM195.225 27.4814C195.239 27.4814 195.252 27.4814 195.265 27.4813L195.254 25.4813C195.244 25.4814 195.235 25.4814 195.225 25.4814V27.4814ZM195.185 27.4813C195.198 27.4814 195.212 27.4814 195.225 27.4814V25.4814C195.216 25.4814 195.206 25.4814 195.197 25.4813L195.185 27.4813ZM195.191 25.4813H185.853V27.4813H195.191V25.4813ZM185.81 27.4814C185.826 27.4814 185.842 27.4814 185.858 27.4813L185.848 25.4813C185.835 25.4814 185.822 25.4814 185.81 25.4814V27.4814ZM185.762 27.4813C185.778 27.4814 185.794 27.4814 185.81 27.4814V25.4814C185.797 25.4814 185.784 25.4814 185.772 25.4813L185.762 27.4813ZM185.767 25.4813H178.198V27.4813H185.767V25.4813ZM178.171 27.4814C178.183 27.4814 178.195 27.4814 178.206 27.4813L178.189 25.4814C178.183 25.4814 178.177 25.4814 178.171 25.4814V27.4814ZM178.135 27.4813C178.147 27.4814 178.159 27.4814 178.171 27.4814V25.4814C178.165 25.4814 178.159 25.4814 178.153 25.4814L178.135 27.4813ZM178.144 25.4813H177.638V27.4813H178.144V25.4813ZM178.638 26.4813V26.4346H176.638V26.4813H178.638ZM174.151 23.4614C174.151 25.4406 175.58 27.084 177.463 27.4191L177.813 25.4501C176.868 25.2818 176.151 24.4544 176.151 23.4614H174.151ZM178.171 19.4414C175.951 19.4414 174.151 21.2412 174.151 23.4614H176.151C176.151 22.3458 177.055 21.4414 178.171 21.4414V19.4414ZM181.115 20.7246C180.383 19.9365 179.334 19.4414 178.171 19.4414V21.4414C178.755 21.4414 179.281 21.6883 179.651 22.0864L181.115 20.7246ZM185.81 17.6649C183.036 17.6649 180.416 18.9164 179.473 20.9915L181.293 21.8195C181.794 20.7183 183.487 19.6649 185.81 19.6649V17.6649ZM189.954 18.7075C188.802 18.0446 187.356 17.6649 185.81 17.6649V19.6649C187.039 19.6649 188.136 19.9687 188.957 20.4412L189.954 18.7075ZM195.225 13.7566C191.851 13.7566 189.048 16.1901 188.471 19.3973L190.44 19.7514C190.848 17.48 192.837 15.7566 195.225 15.7566V13.7566ZM202.085 20.4178C201.978 16.7205 198.948 13.7566 195.225 13.7566V15.7566C197.863 15.7566 200.01 17.8568 200.086 20.4755L202.085 20.4178ZM201.265 19.4414C201.185 19.4414 201.105 19.4437 201.026 19.4484L201.144 21.4449C201.184 21.4426 201.224 21.4414 201.265 21.4414V19.4414ZM205.285 23.4614C205.285 21.2412 203.485 19.4414 201.265 19.4414V21.4414C202.381 21.4414 203.285 22.3458 203.285 23.4614H205.285ZM201.265 27.4814C203.485 27.4814 205.285 25.6816 205.285 23.4614H203.285C203.285 24.577 202.381 25.4814 201.265 25.4814V27.4814ZM201.03 27.4746C201.108 27.4791 201.186 27.4814 201.265 27.4814V25.4814C201.225 25.4814 201.185 25.4803 201.146 25.478L201.03 27.4746ZM200.088 26.4763V26.4813H202.088V26.4763H200.088ZM201.088 25.4813H195.259V27.4813H201.088V25.4813Z" fill="#9ADAF3" mask="url(#path-48-inside-1_296_1448)"/>
<path d="M38.5 82.6112C47.3274 73.2574 71.7821 59.0659 95.646 71.3406C131.42 89.7416 113.301 140.344 156.973 148.855C199.949 157.229 209.706 117.343 192.051 104.922C174.396 92.5018 162.715 110.343 170.679 121.253C187.637 144.485 215.509 136.07 218.765 119.413C222.947 98.0221 208.263 98.0295 199.949 69.7305C192.515 44.4292 221.553 13.3775 248.5 40.519" stroke="#9ADAF3" stroke-linejoin="round" stroke-dasharray="6 6"/>
<mask id="path-51-inside-2_296_1448" fill="white">
<path fill-rule="evenodd" clip-rule="evenodd" d="M82.1064 56.6188C82.1509 56.6207 82.1956 56.6217 82.2405 56.6217C83.9429 56.6217 85.3229 55.2417 85.3229 53.5393C85.3229 51.837 83.9429 50.4569 82.2405 50.4569C81.8152 50.4569 81.41 50.5431 81.0414 50.6989C80.427 48.9948 78.7957 47.7766 76.8799 47.7766C74.4809 47.7766 72.528 49.6867 72.4592 52.069C72.4143 52.0664 72.369 52.0651 72.3234 52.0651C71.0651 52.0651 70.0451 53.0851 70.0451 54.3433C70.0451 55.6016 71.0651 56.6216 72.3234 56.6216C72.3683 56.6216 72.413 56.6203 72.4573 56.6177V56.6217H76.8799H82.1064V56.6188Z"/>
</mask>
<path fill-rule="evenodd" clip-rule="evenodd" d="M82.1064 56.6188C82.1509 56.6207 82.1956 56.6217 82.2405 56.6217C83.9429 56.6217 85.3229 55.2417 85.3229 53.5393C85.3229 51.837 83.9429 50.4569 82.2405 50.4569C81.8152 50.4569 81.41 50.5431 81.0414 50.6989C80.427 48.9948 78.7957 47.7766 76.8799 47.7766C74.4809 47.7766 72.528 49.6867 72.4592 52.069C72.4143 52.0664 72.369 52.0651 72.3234 52.0651C71.0651 52.0651 70.0451 53.0851 70.0451 54.3433C70.0451 55.6016 71.0651 56.6216 72.3234 56.6216C72.3683 56.6216 72.413 56.6203 72.4573 56.6177V56.6217H76.8799H82.1064V56.6188Z" fill="white"/>
<path d="M82.1064 56.6188H81.1064V55.5751L82.1492 55.6197L82.1064 56.6188ZM81.0414 50.6989L81.4307 51.62L80.4587 52.0309L80.1007 51.0381L81.0414 50.6989ZM72.4592 52.069L73.4588 52.0979L73.429 53.1278L72.4005 53.0673L72.4592 52.069ZM72.4573 56.6177L72.3994 55.6194L73.4573 55.5581V56.6177H72.4573ZM72.4573 56.6217V57.6217H71.4573V56.6217H72.4573ZM82.1064 56.6217H83.1064V57.6217H82.1064V56.6217ZM82.1492 55.6197C82.1794 55.621 82.2099 55.6217 82.2405 55.6217V57.6217C82.1813 57.6217 82.1224 57.6204 82.0637 57.6179L82.1492 55.6197ZM82.2405 55.6217C83.3906 55.6217 84.3229 54.6894 84.3229 53.5393H86.3229C86.3229 55.7939 84.4951 57.6217 82.2405 57.6217V55.6217ZM84.3229 53.5393C84.3229 52.3893 83.3906 51.4569 82.2405 51.4569V49.4569C84.4951 49.4569 86.3229 51.2847 86.3229 53.5393H84.3229ZM82.2405 51.4569C81.9513 51.4569 81.6784 51.5153 81.4307 51.62L80.6521 49.7778C81.1416 49.5709 81.6791 49.4569 82.2405 49.4569V51.4569ZM80.1007 51.0381C79.6247 49.7179 78.3609 48.7766 76.8799 48.7766V46.7766C79.2305 46.7766 81.2293 48.2717 81.9821 50.3597L80.1007 51.0381ZM76.8799 48.7766C75.0235 48.7766 73.512 50.2548 73.4588 52.0979L71.4596 52.0402C71.544 49.1186 73.9383 46.7766 76.8799 46.7766V48.7766ZM72.4005 53.0673C72.3751 53.0658 72.3494 53.0651 72.3234 53.0651V51.0651C72.3886 51.0651 72.4535 51.067 72.5179 51.0708L72.4005 53.0673ZM72.3234 53.0651C71.6174 53.0651 71.0451 53.6374 71.0451 54.3433H69.0451C69.0451 52.5328 70.5128 51.0651 72.3234 51.0651V53.0651ZM71.0451 54.3433C71.0451 55.0493 71.6174 55.6216 72.3234 55.6216V57.6216C70.5128 57.6216 69.0451 56.1539 69.0451 54.3433H71.0451ZM72.3234 55.6216C72.349 55.6216 72.3744 55.6208 72.3994 55.6194L72.5152 57.616C72.4516 57.6197 72.3876 57.6216 72.3234 57.6216V55.6216ZM73.4573 56.6177V56.6217H71.4573V56.6177H73.4573ZM72.4573 55.6217H76.8799V57.6217H72.4573V55.6217ZM76.8799 55.6217H82.1064V57.6217H76.8799V55.6217ZM81.1064 56.6217V56.6188H83.1064V56.6217H81.1064Z" fill="#9ADAF3" mask="url(#path-51-inside-2_296_1448)"/>
<path d="M38.6089 35.4097C38.8923 34.6312 39.753 34.2298 40.5315 34.5131L44.4134 35.9261L45.4222 38.0893L43.1964 44.2047C42.913 44.9832 42.0523 45.3846 41.2738 45.1012L37.2154 43.6241C36.4369 43.3408 36.0355 42.48 36.3189 41.7015L38.6089 35.4097Z" fill="white" stroke="#9ADAF3"/>
<path d="M44.4067 35.3917L45.8273 38.4381L43.5938 37.6252L44.4067 35.3917Z" fill="#9ADAF3"/>
<defs>
<filter id="filter0_d_296_1448" x="111.784" y="36.9861" width="62.5549" height="74.6466" filterUnits="userSpaceOnUse" color-interpolation-filters="sRGB">
<feFlood flood-opacity="0" result="BackgroundImageFix"/>
<feColorMatrix in="SourceAlpha" type="matrix" values="0 0 0 0 0 0 0 0 0 0 0 0 0 0 0 0 0 0 127 0" result="hardAlpha"/>
<feOffset dy="7"/>
<feGaussianBlur stdDeviation="7.5"/>
<feColorMatrix type="matrix" values="0 0 0 0 0.3125 0 0 0 0 0.3125 0 0 0 0 0.3125 0 0 0 0.12 0"/>
<feBlend mode="normal" in2="BackgroundImageFix" result="effect1_dropShadow_296_1448"/>
<feBlend mode="normal" in="SourceGraphic" in2="effect1_dropShadow_296_1448" result="shape"/>
</filter>
</defs>
</svg>
